<svg xmlns="http://www.w3.org/2000/svg" width="64" height="64" viewBox="0 0 64 64"><path fill="none" d="M0 0h64v64H0z"/><rect width="64" height="64" fill="#59c3c3" rx="12" ry="12"/><path fill="#fff" d="M28.616 35.384a2.336 2.336 0 0 1 0 3.408 2.42 2.42 0 0 1-3.408 0c-4.68-4.68-4.68-12.288 0-16.968l8.496-8.496c4.68-4.68 12.288-4.68 16.968 0s4.68 12.288 0 16.968l-3.576 3.576a16.6 16.6 0 0 0-.96-5.808l1.128-1.152a7.156 7.156 0 0 0 0-10.176 7.156 7.156 0 0 0-10.176 0l-8.472 8.472a7.156 7.156 0 0 0 0 10.176m6.768-10.176a2.42 2.42 0 0 1 3.408 0c4.68 4.68 4.68 12.288 0 16.968l-8.496 8.496c-4.68 4.68-12.288 4.68-16.968 0s-4.68-12.288 0-16.968l3.576-3.576a16.8 16.8 0 0 0 .96 5.832l-1.128 1.128a7.156 7.156 0 0 0 0 10.176 7.156 7.156 0 0 0 10.176 0l8.472-8.472a7.156 7.156 0 0 0 0-10.176 2.336 2.336 0 0 1 0-3.408"/></svg>
