<svg xmlns="http://www.w3.org/2000/svg" width="192" height="48" viewBox="0 0 192 48"><rect width="48" height="48" fill="#59c3c3" rx="8" ry="8"/><path fill="#fff" d="M21.744 26.256a1.557 1.557 0 0 1 0 2.272 1.613 1.613 0 0 1-2.272 0c-3.12-3.12-3.12-8.192 0-11.312l5.664-5.664c3.12-3.12 8.192-3.12 11.312 0s3.12 8.192 0 11.312l-2.384 2.384a11 11 0 0 0-.64-3.872l.752-.768a4.77 4.77 0 0 0 0-6.784 4.77 4.77 0 0 0-6.784 0l-5.648 5.648a4.77 4.77 0 0 0 0 6.784m4.512-6.784a1.613 1.613 0 0 1 2.272 0c3.12 3.12 3.12 8.192 0 11.312l-5.664 5.664c-3.12 3.12-8.192 3.12-11.312 0s-3.12-8.192 0-11.312l2.384-2.384a11.2 11.2 0 0 0 .64 3.888l-.752.752a4.77 4.77 0 0 0 0 6.784 4.77 4.77 0 0 0 6.784 0l5.648-5.648a4.77 4.77 0 0 0 0-6.784 1.557 1.557 0 0 1 0-2.272"/><text x="60" y="28" fill="#52489c" font-family="system-ui, -apple-system, sans-serif" font-size="20" font-weight="600">
    alexbbt
  </text><text x="129" y="28" fill="#59c3c3" font-family="system-ui, -apple-system, sans-serif" font-size="20" font-weight="600">
    .link
  </text><text x="60" y="42" fill="#52489c" font-family="system-ui, -apple-system, sans-serif" font-size="10" font-weight="500" letter-spacing="1">
    URL SHORTENER
  </text></svg>
