<svg width="192" height="48" viewBox="0 0 192 48" xmlns="http://www.w3.org/2000/svg">
  <!-- Square icon with rounded corners (robin egg blue) -->
  <rect x="0" y="0" width="48" height="48" rx="8" ry="8" fill="#59c3c3"/>

  <!-- Link chain icon (white) - scaled and centered -->
  <g transform="translate(24, 24) scale(1.6)">
    <path d="M10.59,13.41C11,13.8 11,14.44 10.59,14.83C10.2,15.22 9.56,15.22 9.17,14.83C7.22,12.88 7.22,9.71 9.17,7.76V7.76L12.71,4.22C14.66,2.27 17.83,2.27 19.78,4.22C21.73,6.17 21.73,9.34 19.78,11.29L18.29,12.78C18.3,11.96 18.17,11.14 17.89,10.36L18.36,9.88C19.54,8.71 19.54,6.81 18.36,5.64C17.19,4.46 15.29,4.46 14.12,5.64L10.59,9.17C9.41,10.34 9.41,12.24 10.59,13.41M13.41,9.17C13.8,8.78 14.44,8.78 14.83,9.17C16.78,11.12 16.78,14.29 14.83,16.24V16.24L11.29,19.78C9.34,21.73 6.17,21.73 4.22,19.78C2.27,17.83 2.27,14.66 4.22,12.71L5.71,11.22C5.7,12.04 5.83,12.86 6.11,13.65L5.64,14.12C4.46,15.29 4.46,17.19 5.64,18.36C6.81,19.54 8.71,19.54 9.88,18.36L13.41,14.83C14.59,13.66 14.59,11.76 13.41,10.59C13,10.2 13,9.56 13.41,9.17Z" fill="white" transform="translate(-12, -12)"/>
  </g>

  <!-- Text: alexbbt (ultra violet) -->
  <text x="60" y="28" font-family="system-ui, -apple-system, sans-serif" font-size="20" font-weight="600" fill="#52489c">
    alexbbt
  </text>
  <!-- Text: .link (robin egg blue) -->
  <text x="129" y="28" font-family="system-ui, -apple-system, sans-serif" font-size="20" font-weight="600" fill="#59c3c3">
    .link
  </text>

  <!-- Tagline: URL SHORTENER (ultra violet, uppercase) -->
  <text x="60" y="42" font-family="system-ui, -apple-system, sans-serif" font-size="10" font-weight="500" letter-spacing="1px" fill="#52489c">
    URL SHORTENER
  </text>
</svg>
